<svg width="33" height="32" viewBox="0 0 33 32" fill="none" xmlns="http://www.w3.org/2000/svg">
<g clip-path="url(#clip0_931_291)">
<path d="M12.5 31.486C13.8807 31.486 15 30.3667 15 28.986C15 27.6053 13.8807 26.486 12.5 26.486C11.1193 26.486 10 27.6053 10 28.986C10 30.3667 11.1193 31.486 12.5 31.486Z" fill="#30343F"/>
<path d="M25.5 31.486C26.8807 31.486 28 30.3667 28 28.986C28 27.6053 26.8807 26.486 25.5 26.486C24.1193 26.486 23 27.6053 23 28.986C23 30.3667 24.1193 31.486 25.5 31.486Z" fill="#30343F"/>
<path d="M32.4498 5.04358C32.3525 4.91719 32.2276 4.81477 32.0846 4.74416C31.9416 4.67356 31.7843 4.63665 31.6248 4.63626H7.49903L7.02905 3.14277C6.97742 2.98241 6.88777 2.83692 6.76774 2.71871C6.64771 2.6005 6.50087 2.51308 6.33974 2.4639L2.05768 1.14796C1.92602 1.1075 1.78767 1.09336 1.65054 1.10637C1.51341 1.11938 1.38019 1.15927 1.25848 1.22376C1.01267 1.35401 0.828669 1.57657 0.746956 1.84248C0.665243 2.1084 0.69251 2.39588 0.82276 2.64169C0.953009 2.8875 1.17557 3.0715 1.44148 3.15321L5.1909 4.30206L9.97427 19.4146L8.27189 20.8141L8.13611 20.9499C7.71511 21.4373 7.47659 22.056 7.46135 22.6999C7.44611 23.3439 7.6551 23.9731 8.05256 24.4799C8.33722 24.8261 8.69895 25.1009 9.10881 25.2822C9.51867 25.4636 9.96528 25.5465 10.4129 25.5243H27.844C28.121 25.5243 28.3867 25.4143 28.5825 25.2184C28.7784 25.0226 28.8884 24.7569 28.8884 24.4799C28.8884 24.2029 28.7784 23.9373 28.5825 23.7414C28.3867 23.5456 28.121 23.4355 27.844 23.4355H10.2458C10.1255 23.4314 10.0084 23.3964 9.9056 23.3338C9.80284 23.2711 9.71796 23.1831 9.65916 23.0781C9.60037 22.9731 9.56964 22.8547 9.56995 22.7344C9.57026 22.614 9.6016 22.4958 9.66094 22.3911L12.178 20.3023H28.2931C28.5317 20.3093 28.7655 20.2343 28.9555 20.0899C29.1455 19.9455 29.2803 19.7403 29.3375 19.5086L32.6796 5.93133C32.7114 5.77562 32.7072 5.61473 32.6674 5.46089C32.6275 5.30705 32.5532 5.16432 32.4498 5.04358Z" fill="#30343F"/>
</g>
<defs>
<clipPath id="clip0_931_291">
<rect width="33" height="31" fill="white" transform="translate(0 0.485962)"/>
</clipPath>
</defs>
</svg>
