<svg width="34" height="31" viewBox="0 0 34 31" fill="none" xmlns="http://www.w3.org/2000/svg">
<g clip-path="url(#clip0_812_672)">
<path d="M13.2007 31C14.5814 31 15.7007 29.8807 15.7007 28.5C15.7007 27.1193 14.5814 26 13.2007 26C11.82 26 10.7007 27.1193 10.7007 28.5C10.7007 29.8807 11.82 31 13.2007 31Z" fill="white"/>
<path d="M26.2007 31C27.5814 31 28.7007 29.8807 28.7007 28.5C28.7007 27.1193 27.5814 26 26.2007 26C24.82 26 23.7007 27.1193 23.7007 28.5C23.7007 29.8807 24.82 31 26.2007 31Z" fill="white"/>
<path d="M33.1505 4.55762C33.0532 4.43123 32.9283 4.32881 32.7853 4.2582C32.6422 4.1876 32.4849 4.15069 32.3254 4.1503H8.19971L7.72973 2.65681C7.6781 2.49645 7.58845 2.35095 7.46842 2.23275C7.34839 2.11454 7.20155 2.02711 7.04042 1.97794L2.75837 0.661993C2.6267 0.621533 2.48835 0.607403 2.35122 0.620409C2.2141 0.633416 2.08087 0.673304 1.95916 0.737797C1.71335 0.868046 1.52935 1.09061 1.44764 1.35652C1.36593 1.62244 1.39319 1.90992 1.52344 2.15573C1.65369 2.40154 1.87625 2.58554 2.14217 2.66725L5.89158 3.81609L10.6749 18.9286L8.97257 20.3281L8.8368 20.4639C8.4158 20.9514 8.17727 21.57 8.16203 22.214C8.14679 22.8579 8.35578 23.4871 8.75325 23.994C9.03791 24.3402 9.39964 24.6149 9.80949 24.7963C10.2193 24.9776 10.666 25.0605 11.1136 25.0384H28.5447C28.8217 25.0384 29.0873 24.9284 29.2832 24.7325C29.4791 24.5366 29.5891 24.271 29.5891 23.994C29.5891 23.717 29.4791 23.4513 29.2832 23.2555C29.0873 23.0596 28.8217 22.9496 28.5447 22.9496H10.9465C10.8262 22.9455 10.7091 22.9104 10.6063 22.8478C10.5035 22.7852 10.4186 22.6971 10.3598 22.5921C10.301 22.4871 10.2703 22.3688 10.2706 22.2484C10.2709 22.1281 10.3023 22.0099 10.3616 21.9052L12.8786 19.8164H28.9938C29.2324 19.8233 29.4661 19.7483 29.6562 19.6039C29.8462 19.4595 29.981 19.2543 30.0382 19.0226L33.3803 5.44536C33.4121 5.28966 33.4079 5.12877 33.368 4.97493C33.3282 4.82109 33.2538 4.67836 33.1505 4.55762Z" fill="white"/>
</g>
<defs>
<clipPath id="clip0_812_672">
<rect width="33" height="31" fill="white" transform="translate(0.700684)"/>
</clipPath>
</defs>
</svg>
