<svg width="33" height="32" viewBox="0 0 33 32" fill="none" xmlns="http://www.w3.org/2000/svg">
<g clip-path="url(#clip0_928_108)">
<path d="M12.5 31.0283C13.8807 31.0283 15 29.909 15 28.5283C15 27.1475 13.8807 26.0283 12.5 26.0283C11.1193 26.0283 10 27.1475 10 28.5283C10 29.909 11.1193 31.0283 12.5 31.0283Z" fill="white"/>
<path d="M25.5 31.0283C26.8807 31.0283 28 29.909 28 28.5283C28 27.1475 26.8807 26.0283 25.5 26.0283C24.1193 26.0283 23 27.1475 23 28.5283C23 29.909 24.1193 31.0283 25.5 31.0283Z" fill="white"/>
<path d="M32.4498 4.58588C32.3525 4.45949 32.2276 4.35707 32.0846 4.28646C31.9416 4.21586 31.7843 4.17895 31.6248 4.17856H7.49903L7.02905 2.68506C6.97742 2.52471 6.88777 2.37921 6.76774 2.261C6.64771 2.14279 6.50087 2.05537 6.33974 2.0062L2.05768 0.690253C1.92602 0.649792 1.78767 0.635662 1.65054 0.648669C1.51341 0.661675 1.38019 0.701563 1.25848 0.766056C1.01267 0.896306 0.828669 1.11887 0.746956 1.38478C0.665243 1.65069 0.69251 1.93818 0.82276 2.18399C0.953009 2.4298 1.17557 2.6138 1.44148 2.69551L5.1909 3.84435L9.97427 18.9569L8.27189 20.3564L8.13611 20.4922C7.71511 20.9796 7.47659 21.5983 7.46135 22.2422C7.44611 22.8862 7.6551 23.5154 8.05256 24.0222C8.33722 24.3684 8.69895 24.6432 9.10881 24.8245C9.51867 25.0059 9.96528 25.0888 10.4129 25.0666H27.844C28.121 25.0666 28.3867 24.9566 28.5825 24.7607C28.7784 24.5649 28.8884 24.2992 28.8884 24.0222C28.8884 23.7452 28.7784 23.4796 28.5825 23.2837C28.3867 23.0879 28.121 22.9778 27.844 22.9778H10.2458C10.1255 22.9737 10.0084 22.9387 9.9056 22.8761C9.80284 22.8134 9.71796 22.7254 9.65916 22.6204C9.60037 22.5154 9.56964 22.397 9.56995 22.2767C9.57026 22.1563 9.6016 22.0381 9.66094 21.9334L12.178 19.8446H28.2931C28.5317 19.8516 28.7655 19.7766 28.9555 19.6322C29.1455 19.4878 29.2803 19.2826 29.3375 19.0509L32.6796 5.47362C32.7114 5.31792 32.7072 5.15702 32.6674 5.00319C32.6275 4.84935 32.5532 4.70662 32.4498 4.58588Z" fill="white"/>
</g>
<defs>
<clipPath id="clip0_928_108">
<rect width="33" height="31" fill="white" transform="translate(0 0.0282593)"/>
</clipPath>
</defs>
</svg>
