<svg width="32" height="33" viewBox="0 0 32 33" fill="none" xmlns="http://www.w3.org/2000/svg">
<g clip-path="url(#clip0_928_101)">
<path d="M25.5342 0.0282593H6.16365C2.76458 0.0282593 0 2.79284 0 6.19191V25.5625C0 28.9616 2.76458 31.7262 6.16365 31.7262H25.5342C28.9333 31.7262 31.6979 28.9616 31.6979 25.5625V6.19191C31.6979 2.79284 28.9333 0.0282593 25.5342 0.0282593ZM29.0564 25.5625C29.0564 27.5045 27.4763 29.0847 25.5342 29.0847H6.16365C4.22163 29.0847 2.64149 27.5045 2.64149 25.5625V6.19191C2.64149 4.24989 4.22163 2.66975 6.16365 2.66975H25.5342C27.4763 2.66975 29.0564 4.24989 29.0564 6.19191V25.5625Z" fill="white"/>
<path d="M15.849 20.3677C19.6939 20.3677 22.8225 17.2391 22.8225 13.3942C22.8225 9.54924 19.6939 6.42065 15.849 6.42065C12.004 6.42065 8.87543 9.54924 8.87543 13.3942C8.87543 17.2391 12.004 20.3677 15.849 20.3677ZM15.849 9.06214C18.2374 9.06214 20.181 11.0058 20.181 13.3942C20.181 15.7826 18.2374 17.7262 15.849 17.7262C13.4605 17.7262 11.5169 15.7826 11.5169 13.3942C11.5169 11.0058 13.4605 9.06214 15.849 9.06214Z" fill="white"/>
<path d="M14.2778 16.0214C15.1455 16.0214 15.8489 15.318 15.8489 14.4502C15.8489 13.5825 15.1455 12.8791 14.2778 12.8791C13.41 12.8791 12.7066 13.5825 12.7066 14.4502C12.7066 15.318 13.41 16.0214 14.2778 16.0214Z" fill="white"/>
<path d="M25.305 20.6055C25.7112 19.5124 25.9442 18.3359 25.9442 17.1034C25.9442 16.3738 25.3531 15.7827 24.6235 15.7827C23.8939 15.7827 23.3027 16.3738 23.3027 17.1034C23.3027 21.2136 19.9591 24.5572 15.849 24.5572C11.7388 24.5572 8.39521 21.2136 8.39521 17.1034C8.39521 16.3738 7.80405 15.7827 7.07447 15.7827C6.34489 15.7827 5.75372 16.3738 5.75372 17.1034C5.75372 22.6701 10.2823 27.1987 15.849 27.1987C17.0276 27.1987 18.155 26.9852 19.2074 26.6122C19.2718 26.7639 19.3637 26.9065 19.4874 27.0301C20.3126 27.8553 21.4093 28.3097 22.5758 28.3097C23.7423 28.3097 24.839 27.8553 25.6637 27.0307C26.4889 26.206 26.9432 25.1092 26.9432 23.9427C26.9432 22.7763 26.4889 21.6795 25.6637 20.8543C25.557 20.7476 25.4344 20.6678 25.305 20.6055ZM23.7956 25.1626C23.2256 25.7337 22.2831 25.8045 21.619 25.375C22.5483 24.7257 23.3587 23.9221 24.0233 23.0045C24.203 23.2818 24.3017 23.6046 24.3017 23.9427C24.3017 24.4034 24.1221 24.8366 23.7956 25.1626Z" fill="white"/>
</g>
<defs>
<clipPath id="clip0_928_101">
<rect width="32" height="32" fill="white" transform="translate(0 0.0282593)"/>
</clipPath>
</defs>
</svg>
