<svg width="66" height="66" viewBox="0 0 66 66" fill="none" xmlns="http://www.w3.org/2000/svg">
<g clip-path="url(#clip0_928_82)">
<path d="M52.6644 0H12.7125C5.70195 0 0 5.70195 0 12.7125V52.6644C0 59.6749 5.70195 65.3769 12.7125 65.3769H52.6644C59.6749 65.3769 65.3769 59.6749 65.3769 52.6644V12.7125C65.3769 5.70195 59.6749 0 52.6644 0ZM59.9288 52.6644C59.9288 56.6698 56.6698 59.9288 52.6644 59.9288H12.7125C8.70711 59.9288 5.44807 56.6698 5.44807 52.6644V12.7125C5.44807 8.70711 8.70711 5.44807 12.7125 5.44807H52.6644C56.6698 5.44807 59.9288 8.70711 59.9288 12.7125V52.6644Z" fill="#FAFAFF"/>
<path d="M32.6885 41.9502C40.6187 41.9502 47.0714 35.4975 47.0714 27.5672C47.0714 19.637 40.6187 13.1843 32.6885 13.1843C24.7582 13.1843 18.3055 19.637 18.3055 27.5672C18.3055 35.4975 24.7582 41.9502 32.6885 41.9502ZM32.6885 18.6324C37.6146 18.6324 41.6233 22.6411 41.6233 27.5672C41.6233 32.4934 37.6146 36.5021 32.6885 36.5021C27.7623 36.5021 23.7536 32.4934 23.7536 27.5672C23.7536 22.6411 27.7623 18.6324 32.6885 18.6324Z" fill="#FAFAFF"/>
<path d="M29.4479 32.9859C31.2376 32.9859 32.6884 31.5351 32.6884 29.7454C32.6884 27.9557 31.2376 26.5049 29.4479 26.5049C27.6582 26.5049 26.2074 27.9557 26.2074 29.7454C26.2074 31.5351 27.6582 32.9859 29.4479 32.9859Z" fill="#FAFAFF"/>
<path d="M52.1914 42.4405C53.0293 40.1861 53.5098 37.7595 53.5098 35.2174C53.5098 33.7127 52.2906 32.4934 50.7858 32.4934C49.2811 32.4934 48.0618 33.7127 48.0618 35.2174C48.0618 43.6947 41.1656 50.5908 32.6884 50.5908C24.2112 50.5908 17.315 43.6947 17.315 35.2174C17.315 33.7127 16.0957 32.4934 14.591 32.4934C13.0862 32.4934 11.8669 33.7127 11.8669 35.2174C11.8669 46.6987 21.2071 56.0389 32.6884 56.0389C35.1193 56.0389 37.4446 55.5987 39.6151 54.8294C39.748 55.1421 39.9376 55.4363 40.1926 55.6913C41.8946 57.3933 44.1566 58.3304 46.5625 58.3304C48.9683 58.3304 51.2304 57.3933 52.9313 55.6924C54.6332 53.9915 55.5703 51.7295 55.5703 49.3236C55.5703 46.9177 54.6332 44.6557 52.9313 42.9537C52.7112 42.7336 52.4584 42.5691 52.1914 42.4405ZM49.0784 51.8395C47.9027 53.0174 45.9588 53.1634 44.5892 52.2775C46.5058 50.9384 48.1773 49.2811 49.548 47.3884C49.9185 47.9605 50.1222 48.6262 50.1222 49.3236C50.1222 50.2737 49.7518 51.1672 49.0784 51.8395Z" fill="#FAFAFF"/>
</g>
<defs>
<clipPath id="clip0_928_82">
<rect width="66" height="66" fill="white"/>
</clipPath>
</defs>
</svg>
